<svg width="48" height="47" viewBox="0 0 48 47" fill="none" xmlns="http://www.w3.org/2000/svg">
<path d="M44 5.85748H14C12.62 5.85748 11.54 6.54086 10.82 7.57568L0 23.43L10.82 39.2647C11.54 40.2996 12.62 41.0025 14 41.0025H44C46.2 41.0025 48 39.2452 48 37.0975V9.76248C48 7.61473 46.2 5.85748 44 5.85748ZM44 37.0975H14.14L4.8 23.43L14.12 9.76248H44V37.0975ZM20.82 33.1925L28 26.183L35.18 33.1925L38 30.4395L30.82 23.43L38 16.4205L35.18 13.6675L28 20.677L20.82 13.6675L18 16.4205L25.18 23.43L18 30.4395L20.82 33.1925Z" fill="#E3E4E8"/>
</svg>
